<svg xmlns="http://www.w3.org/2000/svg" xmlns:xlink="http://www.w3.org/1999/xlink" id="Layer_1" style="enable-background:new 0 0 50 50" version="1.1" viewBox="0 0 50 50" xml:space="preserve"><g id="Layer_1_1_"><path d="M5,7v42h34v-6h6V1H11v6H5z M37,47H7V9h4h19v7h7v27V47z M32,10.414L35.586,14H32V10.414z M13,3h30v38h-4V14.586L31.414,7H13 V3z"/><rect width="22" height="2" x="11" y="20"/><rect width="22" height="2" x="11" y="26"/><rect width="22" height="2" x="11" y="32"/><rect width="9" height="2" x="11" y="40"/><rect width="9" height="2" x="24" y="40"/><rect width="8" height="2" x="18" y="14"/></g></svg>