<svg xmlns="http://www.w3.org/2000/svg" width="800" height="800" viewBox="-1 0 20 20"><g id="user-8" transform="translate(-3 -2)"><path id="secondary" fill="#2ca9bc" d="M16.29,13.19a6,6,0,0,1-8.58,0A5,5,0,0,0,4,18a3,3,0,0,0,3,3H17a3,3,0,0,0,3-3,5,5,0,0,0-3.71-4.81Z"/><path id="primary" fill="none" stroke="#000" stroke-linecap="round" stroke-linejoin="round" stroke-width="2" d="M7.49,13.25A5,5,0,0,0,4,18a3,3,0,0,0,3,3H17a3,3,0,0,0,3-3,5,5,0,0,0-3.49-4.75"/><circle id="primary-2" cx="6" cy="6" r="6" fill="none" stroke="#000" stroke-linecap="round" stroke-linejoin="round" stroke-width="2" data-name="primary" transform="translate(6 3)"/></g></svg>